# xmcd
#
# Track frame offsets:
#	150
#	38462
#	72510
#	115797
#	147270
#	174990
#	221707
#	264492
#	304590
#
# Disc length: 4611 seconds
# Revision: 0
# Processed by: cddbd v1.5.2PL0 Copyright (c) Steve Scherf et al.
# Submitted via: dBpowerAMP V12.0
#
DISCID=7b120109
DTITLE=Underworld - 1992-2002
DYEAR=2003
DGENRE=Electronic
TTITLE0=Cowgirl
TTITLE1=Born Slippy Nuxx
TTITLE2=Pearls Girl
TTITLE3=Jumbo
TTITLE4=Push Upstairs
TTITLE5=Moaner
TTITLE6=Shudder/King of Snake
TTITLE7=8 Ball
TTITLE8=Two Months Off
EXTD=
EXTT0=
EXTT1=
EXTT2=
EXTT3=
EXTT4=
EXTT5=
EXTT6=
EXTT7=
EXTT8=
PLAYORDER=
